<svg viewBox="0 0 20 20" fill="none" xmlns="http://www.w3.org/2000/svg" xmlns:xlink="http://www.w3.org/1999/xlink" x="0" y="0"><path id="Vector_399" d="M10,0c5.52,0 10,4.48 10,10c0,5.52 -4.48,10 -10,10c-5.52,0 -10,-4.48 -10,-10c0,-5.52 4.48,-10 10,-10zM10,2c-4.42,0 -8,3.58 -8,8c0,4.42 3.58,8 8,8c4.42,0 8,-3.58 8,-8c0,-4.42 -3.58,-8 -8,-8zM10,5c1.82,0 3.413,0.97 4.288,2.43l-1.714,1.03c-0.27,-0.45 -0.653,-0.82 -1.111,-1.08c-0.458,-0.26 -0.974,-0.39 -1.499,-0.38c-0.524,0.01 -1.038,0.15 -1.489,0.42c-0.452,0.26 -0.825,0.64 -1.084,1.1c-0.258,0.46 -0.393,0.97 -0.39,1.5c0.003,0.52 0.144,1.04 0.408,1.49c0.264,0.45 0.642,0.83 1.097,1.09c0.454,0.26 0.97,0.4 1.494,0.4c0.518,0 1.028,-0.13 1.478,-0.39c0.451,-0.25 0.829,-0.62 1.095,-1.07l1.715,1.03c-0.562,0.94 -1.416,1.67 -2.432,2.08c-1.016,0.4 -2.137,0.46 -3.191,0.17c-1.054,-0.29 -1.984,-0.92 -2.646,-1.79c-0.662,-0.87 -1.02,-1.94 -1.019,-3.03c0,-2.76 2.24,-5 5,-5z" fill="currentColor"/></svg>