<svg viewBox="0 0 40 40" fill="none" xmlns="http://www.w3.org/2000/svg" xmlns:xlink="http://www.w3.org/1999/xlink" x="0" y="0"><defs><clipPath id="clip12_2_447">
<rect width="18" height="18" fill="white" transform="translate(11, 11)"/>
</clipPath></defs><g id="Cv">
<circle id="Ellipse 11" cx="20" cy="20" r="20" fill="#F0F0F6"/>
<g id="Icons/cv">
<g id="Icons/cv_2">
<g id="Icons/cv_3" clip-path="url(#clip12_2_447)">
<path id="Vector_12" d="M23.76,22.272l-3.51,3.354l-3.51,-3.354c-2.64,0.109 -4.74,2.166 -4.74,4.704v0.337c0,0.932 0.79,1.688 1.77,1.688h12.96c0.98,0 1.77,-0.756 1.77,-1.688v-0.337c0,-2.538 -2.1,-4.595 -4.74,-4.704zM12.5,13.806l0.24,0.053v2.053c-0.26,0.148 -0.45,0.405 -0.45,0.714c0,0.295 0.17,0.541 0.41,0.692l-0.57,2.191c-0.06,0.242 0.08,0.492 0.28,0.492h1.54c0.2,0 0.34,-0.25 0.28,-0.492l-0.58,-2.191c0.24,-0.151 0.41,-0.397 0.41,-0.692c0,-0.309 -0.18,-0.566 -0.44,-0.714v-1.849l2.43,0.559c-0.32,0.605 -0.51,1.28 -0.51,2.004c0,2.485 2.11,4.5 4.71,4.5c2.6,0 4.71,-2.015 4.71,-4.5c0,-0.724 -0.19,-1.399 -0.51,-2.004l3.55,-0.816c0.67,-0.154 0.67,-0.952 0,-1.107l-7.02,-1.617c-0.48,-0.109 -0.98,-0.109 -1.46,0l-7.02,1.613c-0.67,0.155 -0.67,0.957 0,1.111z" fill="#767676"/>
</g>
</g>
</g>
</g></svg>