<svg viewBox="0 0 24 24" fill="none" xmlns="http://www.w3.org/2000/svg" xmlns:xlink="http://www.w3.org/1999/xlink" x="0" y="0"><defs><clipPath id="clip7_2_447">
<rect width="14" height="14" fill="white" transform="translate(5, 5)"/>
</clipPath></defs><g id="Dribbble">
<circle id="Ellipse 9_5" cx="12" cy="12" r="12" fill="#FFB400"/>
<g id="Icons-dribbble">
<g id="Icons-dribbble_2">
<g id="Icons-dribbble_3" clip-path="url(#clip7_2_447)">
<path id="Vector_7" d="M16.66,11.75c-0.048,-0.918 -0.367,-1.801 -0.917,-2.538c-0.168,0.181 -0.347,0.35 -0.537,0.508c-0.583,0.484 -1.234,0.879 -1.933,1.172c0.098,0.204 0.187,0.402 0.266,0.589v0.001c0.022,0.053 0.043,0.105 0.064,0.158c0.883,-0.099 1.814,-0.063 2.716,0.059c0.121,0.016 0.234,0.034 0.341,0.051zM11.186,7.404c0.568,0.801 1.092,1.633 1.57,2.491c0.713,-0.281 1.303,-0.636 1.778,-1.031c0.165,-0.135 0.32,-0.283 0.464,-0.44c-0.839,-0.706 -1.901,-1.092 -2.998,-1.091c-0.273,0 -0.546,0.024 -0.814,0.071zM7.481,10.831c0.397,-0.01 0.794,-0.034 1.19,-0.071c0.956,-0.086 1.904,-0.246 2.836,-0.48c-0.487,-0.846 -1.012,-1.668 -1.575,-2.466c-0.601,0.298 -1.131,0.722 -1.554,1.242c-0.423,0.521 -0.729,1.126 -0.897,1.775zM8.373,14.937c0.227,-0.331 0.524,-0.703 0.919,-1.108c0.848,-0.869 1.849,-1.546 3.008,-1.919l0.036,-0.01c-0.096,-0.213 -0.187,-0.402 -0.278,-0.581c-1.071,0.312 -2.199,0.507 -3.323,0.608c-0.548,0.05 -1.04,0.071 -1.402,0.075c-0.001,1.069 0.367,2.105 1.041,2.935zM13.753,16.325c-0.225,-1.134 -0.544,-2.248 -0.952,-3.33c-1.168,0.424 -2.098,1.044 -2.818,1.784c-0.29,0.293 -0.548,0.617 -0.768,0.965c0.804,0.6 1.781,0.924 2.785,0.923c0.601,0 1.196,-0.115 1.753,-0.341zM14.845,15.698c0.911,-0.7 1.531,-1.711 1.743,-2.841c-0.199,-0.049 -0.45,-0.099 -0.726,-0.137c-0.615,-0.089 -1.239,-0.095 -1.855,-0.02c0.347,0.98 0.627,1.981 0.838,2.999zM12,17.833c-3.222,0 -5.833,-2.611 -5.833,-5.833c0,-3.222 2.611,-5.833 5.833,-5.833c3.222,0 5.833,2.611 5.833,5.833c0,3.222 -2.611,5.833 -5.833,5.833z" fill="#2B2B2B"/>
</g>
</g>
</g>
</g></svg>