<svg viewBox="0 0 41 41" fill="none" xmlns="http://www.w3.org/2000/svg" xmlns:xlink="http://www.w3.org/1999/xlink" id="c2bb227" x="0" y="0"><g id="Home One page- Light" data-node-id="2:447" clip-path="url(#clip0_2_447)"><g id="Contact information" data-node-id="2:971"><g id="Gmail" data-node-id="2:973"><circle id="Ellipse 42" data-node-id="2:981" cx="20.5" cy="20.5" r="20" fill="#FFB400"/><g id="cons/mail" data-node-id="2:982">
<g id="cons/mail_2" data-node-id="2:2706">
<g id="Icons/mail" data-node-id="2:2710" clip-path="url(#clip47_2_447)">
<path id="Vector_84" data-node-id="2:2712" d="M13.75,13.75h13.5c0.2,0 0.39,0.08 0.53,0.22c0.14,0.14 0.22,0.33 0.22,0.53v12c0,0.2 -0.08,0.39 -0.22,0.53c-0.14,0.14 -0.33,0.22 -0.53,0.22h-13.5c-0.2,0 -0.39,-0.08 -0.53,-0.22c-0.14,-0.14 -0.22,-0.33 -0.22,-0.53v-12c0,-0.2 0.08,-0.39 0.22,-0.53c0.14,-0.14 0.33,-0.22 0.53,-0.22zM20.55,20.26l-4.81,-4.08l-0.98,1.14l5.79,4.92l5.69,-4.92l-0.98,-1.14l-4.71,4.08z" fill="#2B2B2B"/>
</g>
</g>
</g></g></g></g><defs><clipPath id="clip0_2_447">
<rect width="1440" height="8063" fill="white" x="-1099.5" y="-6939.5"/>
</clipPath><clipPath id="clip47_2_447">
<rect width="18" height="18" fill="white" transform="translate(11.5, 11.5)"/>
</clipPath></defs></svg>