<svg viewBox="0 0 74 74" fill="none" xmlns="http://www.w3.org/2000/svg" xmlns:xlink="http://www.w3.org/1999/xlink" x="0" y="0"><g id="Icons/game-development_5">
<path id="Vector_29" d="M32.375,38.16h9.25v2.31h-9.25z" fill="currentColor"/>
<path id="Vector_30" d="M35.844,34.69h2.312v9.25h-2.312z" fill="currentColor"/>
<path id="Vector_31" d="M65.906,38.16h2.313v2.31h-2.313z" fill="currentColor"/>
<path id="Vector_32" d="M56.656,38.16h2.313v2.31h-2.313z" fill="currentColor"/>
<path id="Vector_33" d="M61.281,33.53h2.313v2.31h-2.313z" fill="currentColor"/>
<path id="Vector_34" d="M61.281,42.78h2.313v2.31h-2.313z" fill="currentColor"/>
<path id="Vector_35" d="M10.66,20.38l-5.203,-6.5l5.203,-6.51l1.805,1.45l-4.047,5.06l4.047,5.05z" fill="currentColor"/>
<path id="Vector_36" d="M28.653,20.38l-1.806,-1.45l4.048,-5.05l-4.048,-5.06l1.806,-1.45l5.202,6.51z" fill="currentColor"/>
<path id="Vector_37" d="M14.738,17.74l8.096,-9.25l1.74,1.52l-8.096,9.25z" fill="currentColor"/>
<path id="Vector_38" d="M9.25,50.88h-4.625v-4.63h2.313v2.31h2.312z" fill="currentColor"/>
<path id="Vector_39" d="M70.531,2.31h-67.062c-1.916,0 -3.469,1.56 -3.469,3.47v46.25c0,1.92 1.553,3.47 3.469,3.47h24.281v5.78c0,1.92 -1.553,3.47 -3.469,3.47h-5.781v6.94h37v-6.94h-5.781c-1.916,0 -3.469,-1.55 -3.469,-3.47v-5.78h24.281c1.916,0 3.469,-1.55 3.469,-3.47v-46.25c0,-1.91 -1.553,-3.47 -3.469,-3.47zM53.188,67.06v2.32h-32.376v-2.32zM37,62.49c1.916,0 3.469,-1.56 3.469,-3.47v-3.52h3.469v5.78c0.004,1.26 0.421,2.48 1.186,3.47h-16.248c0.765,-0.99 1.182,-2.21 1.186,-3.47v-5.78h3.469v3.52c0,1.91 1.553,3.47 3.469,3.47zM35.844,59.02v-3.52h2.312v3.52c0,0.64 -0.517,1.15 -1.156,1.15c-0.639,0 -1.156,-0.51 -1.156,-1.15zM71.688,52.03c0,0.64 -0.518,1.16 -1.157,1.16h-67.062c-0.639,0 -1.157,-0.52 -1.157,-1.16v-10.41h23.357c0.957,4.71 4.727,8.34 9.468,9.11c4.741,0.77 9.464,-1.48 11.863,-5.64h5.435c1.938,3.37 5.442,5.54 9.322,5.77c3.88,0.22 7.613,-1.52 9.931,-4.64zM62.438,48.56c-3.515,0.01 -6.727,-1.98 -8.277,-5.14l-0.32,-0.64h-8.244l-0.32,0.64c-2.028,4.09 -6.735,6.09 -11.085,4.71c-4.351,-1.38 -7.044,-5.73 -6.343,-10.24c0.701,-4.51 4.587,-7.83 9.151,-7.83h25.438c5.108,0 9.25,4.14 9.25,9.25c0,5.11 -4.142,9.25 -9.25,9.25zM71.688,32.4c-2.175,-2.92 -5.605,-4.65 -9.25,-4.65h-25.438c-6.383,0.01 -11.556,5.18 -11.562,11.56h-23.126v-33.53c0,-0.64 0.518,-1.16 1.157,-1.16h67.062c0.639,0 1.157,0.52 1.157,1.16z" fill="currentColor"/>
<path id="Vector_40" d="M47.406,38.16h4.625v2.31h-4.625z" fill="currentColor"/>
<path id="Vector_41" d="M34.688,9.25h9.25v2.31h-9.25z" fill="currentColor"/>
<path id="Vector_42" d="M48.562,9.25h18.5v2.31h-18.5z" fill="currentColor"/>
<path id="Vector_43" d="M50.875,13.88h16.187v2.31h-16.187z" fill="currentColor"/>
<path id="Vector_44" d="M37,13.88h9.25v2.31h-9.25z" fill="currentColor"/>
<path id="Vector_45" d="M34.688,18.5h23.124v2.31h-23.124z" fill="currentColor"/>
<path id="Vector_46" d="M62.438,18.5h4.624v2.31h-4.624z" fill="currentColor"/>
<path id="Vector_47" d="M6.938,23.12h11.562v2.32h-11.562z" fill="currentColor"/>
<path id="Vector_48" d="M23.125,23.12h21.969v2.32h-21.969z" fill="currentColor"/>
<path id="Vector_49" d="M48.562,23.12h18.5v2.32h-18.5z" fill="currentColor"/>
<path id="Vector_50" d="M6.938,27.75h18.5v2.31h-18.5z" fill="currentColor"/>
<path id="Vector_51" d="M6.938,32.38h9.25v2.31h-9.25z" fill="currentColor"/>
<path id="Vector_52" d="M18.5,32.38h4.625v2.31h-4.625z" fill="currentColor"/>
</g></svg>