<svg viewBox="0 0 41 41" fill="none" xmlns="http://www.w3.org/2000/svg" xmlns:xlink="http://www.w3.org/1999/xlink" id="94efe00a" x="0" y="0"><g id="Home One page- Light" data-node-id="2:447" clip-path="url(#clip0_2_447)"><g id="Contact information" data-node-id="2:971"><g id="Location" data-node-id="2:995"><circle id="Ellipse 41" data-node-id="2:1003" cx="20.5" cy="20.5" r="20" fill="#FFB400"/><g id="cons/location" data-node-id="2:1004">
<g id="cons/location_2" data-node-id="2:2686">
<g id="Icons/location" data-node-id="2:2690" clip-path="url(#clip49_2_447)">
<path id="Vector_86" data-node-id="2:2692" d="M13,15.25l5.25,-2.25l4.5,2.25l4.73,-2.03c0.05,-0.02 0.12,-0.03 0.18,-0.02c0.06,0 0.12,0.02 0.17,0.06c0.05,0.03 0.1,0.08 0.13,0.13c0.02,0.06 0.04,0.12 0.04,0.18v12.18l-5.25,2.25l-4.5,-2.25l-4.73,2.03c-0.05,0.02 -0.12,0.03 -0.18,0.02c-0.06,0 -0.12,-0.02 -0.17,-0.06c-0.05,-0.03 -0.1,-0.08 -0.13,-0.13c-0.02,-0.06 -0.04,-0.12 -0.04,-0.18zM22.75,26.32v-9.44l-0.05,0.02l-4.45,-2.22v9.44l0.05,-0.02z" fill="#2B2B2B"/>
</g>
</g>
</g></g></g></g><defs><clipPath id="clip0_2_447">
<rect width="1440" height="8063" fill="white" x="-1099.5" y="-6711.5"/>
</clipPath><clipPath id="clip49_2_447">
<rect width="18" height="18" fill="white" transform="translate(11.5, 11.5)"/>
</clipPath></defs></svg>