<svg viewBox="0 0 74 74" fill="none" xmlns="http://www.w3.org/2000/svg" xmlns:xlink="http://www.w3.org/1999/xlink" x="0" y="0"><defs><clipPath id="clip17_2_447">
<rect width="74" height="74" fill="white" transform="translate(0, 0)"/>
</clipPath></defs><g id="Icons/Microphone_5" clip-path="url(#clip17_2_447)">
<g id="Group_4">
<g id="Group_5">
<path id="Vector_27" d="M37,0c-7.98,0 -14.48,6.753 -14.48,15.053v21.947c0,8.301 6.5,15.053 14.48,15.053c7.98,0 14.48,-6.752 14.48,-15.053v-21.947c0,-8.3 -6.5,-15.053 -14.48,-15.053zM37,48.835c-5.69,0 -10.39,-4.461 -11.14,-10.226h22.28c-0.75,5.767 -5.45,10.226 -11.14,10.226zM48.26,35.391h-22.52v-20.338c0,-6.527 5.05,-11.836 11.26,-11.836c6.21,0 11.26,5.309 11.26,11.836z" fill="currentColor"/>
</g>
</g>
<g id="Group_6">
<g id="Group_7">
<path id="Vector_28" d="M59.52,28.957c-0.89,0 -1.61,0.72 -1.61,1.608v6.435c0,11.531 -9.38,20.913 -20.91,20.913c-11.53,0 -20.91,-9.382 -20.91,-20.913v-6.435c0,-0.888 -0.72,-1.608 -1.61,-1.608c-0.89,0 -1.61,0.72 -1.61,1.608v6.435c0,12.762 9.97,23.215 22.52,24.048v9.735h-8.04c-0.89,0 -1.61,0.72 -1.61,1.608c0,0.888 0.72,1.609 1.61,1.609h19.3c0.89,0 1.61,-0.721 1.61,-1.609c0,-0.888 -0.72,-1.608 -1.61,-1.608h-8.04v-9.735c12.55,-0.833 22.52,-11.286 22.52,-24.048v-6.435c0,-0.888 -0.72,-1.608 -1.61,-1.608z" fill="currentColor"/>
</g>
</g>
</g></svg>