<svg viewBox="0 0 25 25" fill="none" xmlns="http://www.w3.org/2000/svg" xmlns:xlink="http://www.w3.org/1999/xlink" x="0" y="0"><path id="Vector_9" d="M12.5,25c-6.9,0 -12.5,-5.5963 -12.5,-12.5c0,-6.9037 5.6,-12.5 12.5,-12.5c6.9,0 12.5,5.5963 12.5,12.5c0,6.9037 -5.6,12.5 -12.5,12.5zM4.16,18.0312c0.82,1.2293 1.91,2.2611 3.18,3.0211c1.26,0.76 2.68,1.2293 4.16,1.3741c1.47,0.1448 2.95,-0.0385 4.34,-0.5367c1.4,-0.4982 2.66,-1.2989 3.71,-2.3445c1.04,-1.0455 1.84,-2.3099 2.34,-3.702c0.5,-1.3922 0.68,-2.8775 0.54,-4.3489c-0.15,-1.4715 -0.62,-2.8925 -1.38,-4.1607c-0.76,-1.2682 -1.79,-2.3521 -3.02,-3.1736c0.54,1.9228 0.56,3.9544 0.05,5.8861c-0.5,1.9317 -1.52,3.6937 -2.93,5.1052c-1.41,1.4124 -3.17,2.4236 -5.1,2.9297c-1.93,0.5062 -3.97,0.489 -5.89,-0.0498z" fill="currentColor"/></svg>