<svg viewBox="0 0 41 41" fill="none" xmlns="http://www.w3.org/2000/svg" xmlns:xlink="http://www.w3.org/1999/xlink" id="943a86e" x="0" y="0"><g id="Home One page- Light" data-node-id="2:447" clip-path="url(#clip0_2_447)"><g id="Contact information" data-node-id="2:971"><g id="Mobile" data-node-id="2:984"><circle id="Ellipse 43" data-node-id="2:992" cx="20.5" cy="20.5" r="20" fill="#FFB400"/><g id="Icons/Mobile" data-node-id="2:993">
<g id="Icons/Mobile_2" data-node-id="2:2696">
<g id="Icons/Mobile_3" data-node-id="2:2700" clip-path="url(#clip48_2_447)">
<path id="Vector_85" data-node-id="2:2702" d="M16,13h9c0.2,0 0.39,0.08 0.53,0.22c0.14,0.14 0.22,0.33 0.22,0.53v13.5c0,0.2 -0.08,0.39 -0.22,0.53c-0.14,0.14 -0.33,0.22 -0.53,0.22h-9c-0.2,0 -0.39,-0.08 -0.53,-0.22c-0.14,-0.14 -0.22,-0.33 -0.22,-0.53v-13.5c0,-0.2 0.08,-0.39 0.22,-0.53c0.14,-0.14 0.33,-0.22 0.53,-0.22zM20.5,24.25c-0.2,0 -0.39,0.08 -0.53,0.22c-0.14,0.14 -0.22,0.33 -0.22,0.53c0,0.2 0.08,0.39 0.22,0.53c0.14,0.14 0.33,0.22 0.53,0.22c0.2,0 0.39,-0.08 0.53,-0.22c0.14,-0.14 0.22,-0.33 0.22,-0.53c0,-0.2 -0.08,-0.39 -0.22,-0.53c-0.14,-0.14 -0.33,-0.22 -0.53,-0.22z" fill="#2B2B2B"/>
</g>
</g>
</g></g></g></g><defs><clipPath id="clip0_2_447">
<rect width="1440" height="8063" fill="white" x="-1099.5" y="-7167.5"/>
</clipPath><clipPath id="clip48_2_447">
<rect width="18" height="18" fill="white" transform="translate(11.5, 11.5)"/>
</clipPath></defs></svg>