<svg viewBox="0 0 78 78" fill="none" xmlns="http://www.w3.org/2000/svg" xmlns:xlink="http://www.w3.org/1999/xlink" x="0" y="0"><g id="Icons/Photographer_5">
<g id="Group_8">
<g id="Group_9">
<path id="Vector_53" d="M55.355,72.97h19.357l-4.969,-14.91c-1.299,-3.9 -4.616,-6.79 -8.655,-7.55l-13.282,-2.49v-3.07c3.182,-2.3 5.428,-5.8 6.079,-9.83c2.969,-0.5 5.244,-3.07 5.244,-6.18v-8.81c0,-11.1 -9.031,-20.13 -20.129,-20.13c-11.099,0 -20.129,9.03 -20.129,20.13v8.81c0,3.1 2.263,5.69 5.227,6.2c0.654,4.03 2.912,7.53 6.095,9.83v3.05l-13.282,2.49c-4.039,0.76 -7.356,3.65 -8.656,7.55l-4.968,14.91h19.358v-2.52h-3.421l2.125,-8.5l-2.441,-0.61l-2.278,9.11h-9.853l3.866,-11.6c1.01,-3.03 3.591,-5.28 6.732,-5.87l8.014,-1.5l2.049,9.22c-1.338,0.58 -2.277,1.91 -2.277,3.46v10.07c0,2.08 1.693,3.77 3.774,3.77h20.129c2.081,0 3.775,-1.69 3.775,-3.77v-10.07c0,-1.55 -0.939,-2.88 -2.276,-3.46l2.049,-9.22l8.014,1.5c3.141,0.59 5.72,2.84 6.732,5.87l3.865,11.6h-9.854l-2.278,-9.11l-2.441,0.61l2.125,8.5h-3.42zM50.137,51.02l-1.737,7.81l-0.869,-3.48h-5.494l4.931,-4.93zM46.195,60.39h-14.39l0.629,-2.52h13.132zM39,54.83l-6.291,-6.29v-2.12c1.918,0.89 4.045,1.39 6.291,1.39c2.247,0 4.373,-0.51 6.29,-1.39v2.12zM54.097,32.48v-7.09c1.46,0.52 2.516,1.91 2.516,3.55c0,1.63 -1.056,3.02 -2.516,3.54zM23.903,32.49c-1.464,-0.52 -2.516,-1.91 -2.516,-3.55c0,-1.65 1.052,-3.04 2.516,-3.56zM21.387,23.94v-3.81c0,-9.71 7.901,-17.61 17.613,-17.61c9.712,0 17.613,7.9 17.613,17.61v3.81c-0.745,-0.57 -1.606,-0.98 -2.557,-1.17c-0.197,-1.49 -1.458,-2.64 -2.996,-2.64c-0.799,0 -1.582,0.32 -2.211,0.95c-2.125,2.13 -4.817,3.48 -7.733,3.92l0.08,-0.16c0.209,-0.42 0.32,-0.89 0.32,-1.36v-0.31c0,-1.68 -1.363,-3.04 -3.037,-3.04c-0.799,0 -1.581,0.32 -2.148,0.89c-2.65,2.65 -6.167,4.12 -9.912,4.14v-2.51h-1.258c-1.422,0 -2.72,0.49 -3.774,1.29zM26.419,32.71v-5.03c4.417,-0.03 8.566,-1.76 11.69,-4.88c0.303,-0.31 0.891,-0.06 0.891,0.37v0.31c0,0.08 -0.019,0.16 -0.056,0.24l-1.98,3.96h2.036c4.393,0 8.522,-1.71 11.69,-4.88c0.304,-0.31 0.89,-0.06 0.89,0.37v9.54c0,6.94 -5.643,12.58 -12.58,12.58c-6.937,0 -12.581,-5.64 -12.581,-12.58zM31.031,50.42l4.932,4.93h-5.494l-0.869,3.48l-1.738,-7.81zM28.935,75.48c-0.693,0 -1.258,-0.56 -1.258,-1.25v-10.07c0,-0.69 0.565,-1.26 1.258,-1.26h3.914c-1.637,1.6 -2.656,3.83 -2.656,6.29c0,2.47 1.019,4.69 2.656,6.29zM39,75.48c-3.469,0 -6.291,-2.82 -6.291,-6.29c0,-3.46 2.822,-6.29 6.291,-6.29c3.468,0 6.29,2.83 6.29,6.29c0,3.47 -2.822,6.29 -6.29,6.29zM50.322,74.23c0,0.69 -0.564,1.25 -1.258,1.25h-3.914c1.637,-1.6 2.656,-3.82 2.656,-6.29c0,-2.46 -1.019,-4.69 -2.656,-6.29h3.914c0.694,0 1.258,0.57 1.258,1.26z" fill="currentColor"/>
</g>
</g>
<g id="Group_10">
<g id="Group_11">
<path id="Vector_54" d="M39,65.42c-2.081,0 -3.774,1.69 -3.774,3.77c0,2.08 1.693,3.78 3.774,3.78c2.081,0 3.774,-1.7 3.774,-3.78c0,-2.08 -1.693,-3.77 -3.774,-3.77zM39,70.45c-0.693,0 -1.258,-0.56 -1.258,-1.26c0,-0.69 0.565,-1.25 1.258,-1.25c0.693,0 1.258,0.56 1.258,1.25c0,0.7 -0.565,1.26 -1.258,1.26z" fill="currentColor"/>
</g>
</g>
</g></svg>