<svg viewBox="0 0 40 40" fill="none" xmlns="http://www.w3.org/2000/svg" xmlns:xlink="http://www.w3.org/1999/xlink" x="0" y="0"><defs><clipPath id="clip13_2_447">
<rect width="18" height="18" fill="white" transform="translate(11, 11)"/>
</clipPath></defs><g id="Portfolio">
<circle id="Ellipse 12_2" cx="20" cy="20" r="20" fill="#F0F0F6"/>
<g id="Icons/Portfolio">
<g id="Icons/Portfolio_2">
<g id="Icons/Portfolio_3">
<g id="Icons/Portfolio_4" clip-path="url(#clip13_2_447)">
<path id="Vector_13" d="M17.75,20.75v2.25h4.5v-2.25h5.25v5.25c0,0.199 -0.08,0.39 -0.22,0.53c-0.14,0.141 -0.33,0.22 -0.53,0.22h-13.5c-0.2,0 -0.39,-0.079 -0.53,-0.22c-0.14,-0.14 -0.22,-0.331 -0.22,-0.53v-5.25zM19.25,19.25h1.5v2.25h-1.5zM16.25,14.75v-2.25c0,-0.199 0.08,-0.39 0.22,-0.53c0.14,-0.141 0.33,-0.22 0.53,-0.22h6c0.2,0 0.39,0.079 0.53,0.22c0.14,0.14 0.22,0.331 0.22,0.53v2.25h3c0.2,0 0.39,0.079 0.53,0.22c0.14,0.14 0.22,0.331 0.22,0.53v3.75h-5.25v-1.5h-4.5v1.5h-5.25v-3.75c0,-0.199 0.08,-0.39 0.22,-0.53c0.14,-0.141 0.33,-0.22 0.53,-0.22zM17.75,13.25v1.5h4.5v-1.5z" fill="#767676"/>
</g>
</g>
</g>
</g>
</g></svg>