<svg viewBox="0 0 40 40" fill="none" xmlns="http://www.w3.org/2000/svg" xmlns:xlink="http://www.w3.org/1999/xlink" x="0" y="0"><defs><clipPath id="clip11_2_447">
<rect width="16.5" height="18" fill="white" transform="translate(12, 11)"/>
</clipPath></defs><g id="Service">
<circle id="Ellipse 10_2" cx="20" cy="20" r="20" fill="#F0F0F6"/>
<g id="Icons/Services">
<g id="Icons/Services_2">
<g id="Icons/Services_3">
<g id="file-code" clip-path="url(#clip11_2_447)">
<path id="Vector_11" d="M28.5,15.287v0.213h-5.5v-4.5h0.26c0.27,0 0.54,0.089 0.73,0.247l4.21,3.443c0.19,0.159 0.3,0.373 0.3,0.597zM22.66,16.625c-0.57,0 -1.04,-0.38 -1.04,-0.844v-4.781h-8.59c-0.57,0 -1.03,0.378 -1.03,0.844v16.312c0,0.466 0.46,0.844 1.03,0.844h14.44c0.57,0 1.03,-0.378 1.03,-0.844v-11.531zM17.29,25.08c-0.02,0.018 -0.04,0.033 -0.07,0.043c-0.03,0.011 -0.06,0.016 -0.09,0.017c-0.03,0.001 -0.06,-0.003 -0.09,-0.012c-0.03,-0.009 -0.05,-0.022 -0.07,-0.039l-2.79,-2.138c-0.02,-0.018 -0.04,-0.039 -0.06,-0.063c-0.01,-0.024 -0.01,-0.05 -0.01,-0.076c0,-0.025 0,-0.051 0.01,-0.075c0.02,-0.024 0.04,-0.045 0.06,-0.063l2.79,-2.138c0.02,-0.017 0.04,-0.03 0.07,-0.039c0.03,-0.009 0.06,-0.013 0.09,-0.012c0.03,0.001 0.06,0.006 0.09,0.017c0.03,0.01 0.05,0.025 0.07,0.043l0.85,0.734c0.02,0.019 0.03,0.04 0.04,0.064c0.01,0.024 0.02,0.049 0.02,0.075c0,0.025 -0.01,0.05 -0.02,0.073c-0.02,0.023 -0.04,0.044 -0.06,0.06l-1.75,1.261l1.75,1.262c0.02,0.016 0.04,0.037 0.06,0.06c0.01,0.023 0.02,0.048 0.02,0.073c0,0.026 -0.01,0.051 -0.02,0.075c-0.01,0.024 -0.02,0.045 -0.04,0.064zM19.5,26.855l-1.18,-0.28c-0.06,-0.014 -0.11,-0.047 -0.14,-0.091c-0.03,-0.044 -0.04,-0.096 -0.02,-0.145l2.64,-7.44c0.02,-0.048 0.06,-0.089 0.11,-0.113c0.06,-0.024 0.12,-0.03 0.18,-0.016l1.18,0.28c0.03,0.007 0.05,0.019 0.08,0.034c0.02,0.016 0.04,0.035 0.06,0.057c0.01,0.022 0.02,0.046 0.02,0.071c0.01,0.024 0,0.05 0,0.074l-2.64,7.439c-0.01,0.024 -0.03,0.047 -0.05,0.066c-0.02,0.02 -0.04,0.036 -0.07,0.048c-0.02,0.012 -0.05,0.02 -0.08,0.022c-0.03,0.003 -0.06,0.001 -0.09,-0.006zM26.41,22.951l-2.79,2.138c-0.02,0.017 -0.05,0.03 -0.08,0.039c-0.03,0.009 -0.06,0.013 -0.09,0.012c-0.03,-0.001 -0.06,-0.006 -0.08,-0.017c-0.03,-0.01 -0.06,-0.025 -0.08,-0.043l-0.84,-0.734c-0.02,-0.019 -0.04,-0.04 -0.05,-0.064c-0.01,-0.024 -0.01,-0.05 -0.01,-0.075c0,-0.025 0.01,-0.05 0.02,-0.073c0.01,-0.023 0.03,-0.044 0.06,-0.06l1.75,-1.262l-1.75,-1.261c-0.03,-0.016 -0.05,-0.037 -0.06,-0.06c-0.01,-0.023 -0.02,-0.048 -0.02,-0.073c0,-0.026 0,-0.051 0.01,-0.075c0.01,-0.024 0.03,-0.045 0.05,-0.064l0.84,-0.734c0.02,-0.018 0.05,-0.033 0.08,-0.043c0.02,-0.011 0.05,-0.016 0.08,-0.017c0.03,-0.001 0.06,0.003 0.09,0.012c0.03,0.009 0.06,0.022 0.08,0.039l2.79,2.138c0.02,0.018 0.04,0.039 0.05,0.063c0.01,0.024 0.02,0.05 0.02,0.075c0,0.026 -0.01,0.052 -0.02,0.076c-0.01,0.024 -0.03,0.045 -0.05,0.063z" fill="#767676"/>
</g>
</g>
</g>
</g>
</g></svg>