<svg viewBox="0 0 24 24" fill="none" xmlns="http://www.w3.org/2000/svg" xmlns:xlink="http://www.w3.org/1999/xlink" x="0" y="0"><defs><clipPath id="clip4_2_447">
<rect width="14" height="14" fill="white" transform="translate(5, 5)"/>
</clipPath></defs><g id="Twitter">
<circle id="Ellipse 9_3" cx="12" cy="12" r="12" fill="#FFB400"/>
<g id="Icons-twitter">
<g id="Icons-twitter_2">
<g id="Icons-twitter_3" clip-path="url(#clip4_2_447)">
<path id="Vector_4" d="M17.928,8.3c-0.446,0.197 -0.918,0.326 -1.401,0.383c0.509,-0.304 0.891,-0.784 1.073,-1.349c-0.478,0.284 -1.003,0.484 -1.549,0.592c-0.368,-0.393 -0.854,-0.654 -1.385,-0.741c-0.53,-0.088 -1.075,0.002 -1.549,0.256c-0.474,0.253 -0.851,0.657 -1.072,1.147c-0.221,0.49 -0.275,1.039 -0.151,1.562c-0.97,-0.048 -1.919,-0.3 -2.786,-0.739c-0.866,-0.44 -1.63,-1.056 -2.243,-1.81c-0.216,0.373 -0.33,0.796 -0.33,1.227c0,0.846 0.431,1.593 1.085,2.031c-0.387,-0.013 -0.766,-0.117 -1.105,-0.305v0.03c0,0.563 0.195,1.109 0.552,1.545c0.357,0.436 0.853,0.735 1.405,0.847c-0.359,0.098 -0.736,0.112 -1.102,0.042c0.156,0.485 0.459,0.909 0.868,1.213c0.408,0.304 0.902,0.472 1.411,0.482c-0.506,0.397 -1.085,0.691 -1.705,0.864c-0.62,0.174 -1.268,0.223 -1.906,0.146c1.115,0.717 2.413,1.098 3.739,1.097c4.487,0 6.941,-3.718 6.941,-6.942c0,-0.105 -0.002,-0.211 -0.007,-0.315c0.478,-0.345 0.89,-0.773 1.217,-1.263z" fill="#2B2B2B"/>
</g>
</g>
</g>
</g></svg>