<svg viewBox="0 0 68 66.8036" fill="none" xmlns="http://www.w3.org/2000/svg" xmlns:xlink="http://www.w3.org/1999/xlink" x="0" y="0"><g id="Group_3">
<path id="Vector_20" d="M31.609,48.7399c-0.55,0 -0.996,0.446 -0.996,0.996c0,0.551 0.446,0.997 0.996,0.997h4.782c0.55,0 0.996,-0.446 0.996,-0.997c0,-0.55 -0.446,-0.996 -0.996,-0.996z" fill="currentColor"/>
<path id="Vector_21" d="M11.953,33.2739h6.584c0.403,1.046 1.416,1.793 2.602,1.793c1.187,0 2.2,-0.747 2.602,-1.793h1.316c0.551,0 0.996,-0.446 0.996,-0.997c0,-0.55 -0.445,-0.996 -0.996,-0.996h-1.316c-0.402,-1.046 -1.415,-1.793 -2.602,-1.793c-1.186,0 -2.199,0.747 -2.602,1.793h-6.584c-0.55,0 -0.996,0.446 -0.996,0.996c0,0.551 0.446,0.997 0.996,0.997zM21.139,31.4809c0.44,0 0.797,0.357 0.797,0.796c0,0.44 -0.357,0.797 -0.797,0.797c-0.439,0 -0.797,-0.357 -0.797,-0.797c0,-0.439 0.358,-0.796 0.797,-0.796z" fill="currentColor"/>
<path id="Vector_22" d="M11.953,27.5629h1.272c0.402,1.046 1.415,1.793 2.602,1.793c1.186,0 2.2,-0.747 2.602,-1.793h6.628c0.551,0 0.996,-0.446 0.996,-0.996c0,-0.551 -0.445,-0.997 -0.996,-0.997h-6.628c-0.402,-1.046 -1.416,-1.793 -2.602,-1.793c-1.187,0 -2.2,0.747 -2.602,1.793h-1.272c-0.55,0 -0.996,0.446 -0.996,0.997c0,0.55 0.446,0.996 0.996,0.996zM15.827,25.7699c0.439,0 0.797,0.357 0.797,0.797c0,0.439 -0.358,0.796 -0.797,0.796c-0.44,0 -0.797,-0.357 -0.797,-0.796c0,-0.44 0.357,-0.797 0.797,-0.797z" fill="currentColor"/>
<path id="Vector_23" d="M25.256,18.3989c0.55,0 0.996,-0.446 0.996,-0.997c0,-0.55 -0.446,-0.996 -0.996,-0.996c-0.55,0 -0.996,0.446 -0.996,0.996c0,0.551 0.446,0.997 0.996,0.997z" fill="currentColor"/>
<path id="Vector_24" d="M22.512,18.3989c0.55,0 0.996,-0.446 0.996,-0.997c0,-0.55 -0.446,-0.996 -0.996,-0.996c-0.55,0 -0.996,0.446 -0.996,0.996c0,0.551 0.446,0.997 0.996,0.997z" fill="currentColor"/>
<path id="Vector_25" d="M19.767,18.3989c0.55,0 0.996,-0.446 0.996,-0.997c0,-0.55 -0.446,-0.996 -0.996,-0.996c-0.55,0 -0.996,0.446 -0.996,0.996c0,0.551 0.446,0.997 0.996,0.997z" fill="currentColor"/>
<path id="Vector_26" d="M65.012,6.1069h-0.373l0.278,-0.278c0.833,-0.834 0.833,-2.19 0,-3.023l-2.181,-2.181c-0.833,-0.833 -2.189,-0.833 -3.023,0l-5.481,5.482h-51.244c-1.647,0 -2.988,1.34 -2.988,2.988v41.366c0,2.014 1.638,3.653 3.652,3.653h23.594v7.046h-4.801c-1.281,0 -2.324,1.043 -2.324,2.324v0.995c0,1.282 1.043,2.325 2.324,2.325h23.11c1.281,0 2.324,-1.043 2.324,-2.325v-0.995c0,-1.281 -1.043,-2.324 -2.324,-2.324h-4.801v-7.046h10.644c0.551,0 0.997,-0.446 0.997,-0.996c0,-0.551 -0.446,-0.997 -0.997,-0.997h-47.746c-0.915,0 -1.66,-0.744 -1.66,-1.66v-2.948h64.016v2.948c0,0.916 -0.745,1.66 -1.66,1.66h-8.301c-0.55,0 -0.996,0.446 -0.996,0.997c0,0.55 0.446,0.996 0.996,0.996h8.301c2.014,0 3.652,-1.639 3.652,-3.653v-41.366c0,-1.648 -1.341,-2.988 -2.988,-2.988zM45.555,63.1519c0.183,0 0.332,0.149 0.332,0.332v0.996c0,0.183 -0.149,0.332 -0.332,0.332h-23.11c-0.183,0 -0.332,-0.149 -0.332,-0.332v-0.996c0,-0.183 0.149,-0.332 0.332,-0.332zM29.238,54.1139h9.524v7.046h-9.524zM61.122,2.0339c0.057,-0.057 0.149,-0.057 0.206,0l2.18,2.18c0.057,0.057 0.057,0.149 0,0.206l-2.08,2.08l-2.386,-2.386zM57.633,5.5229l2.386,2.386l-0.695,0.695l-2.386,-2.386zM55.529,7.6269l2.386,2.386l-11.787,11.787l-2.386,-2.386zM54.055,16.7339c1.355,0 2.457,1.102 2.457,2.457c0,1.354 -1.102,2.457 -2.457,2.457c-1.355,0 -2.457,-1.103 -2.457,-2.457c0,-0.016 0.002,-0.032 0.002,-0.047l2.408,-2.408c0.016,0 0.031,-0.002 0.047,-0.002zM44.398,22.8879l-2.948,1.204l1.204,-2.948zM66.008,45.5209h-64.016v-36.426c0,-0.549 0.447,-0.996 0.996,-0.996h49.252l-1.519,1.519h-33.854c-0.55,0 -0.996,0.446 -0.996,0.996c0,0.55 0.446,0.996 0.996,0.996h31.862l-7.026,7.026c-0.198,0.201 -0.354,0.434 -0.46,0.696l-2.225,5.447c-0.205,0.501 -0.09,1.071 0.293,1.453c0.256,0.256 0.597,0.392 0.945,0.392c0.17,0 0.342,-0.032 0.507,-0.099l5.447,-2.225c0.254,-0.104 0.482,-0.254 0.678,-0.445l3.031,-3.03c0.652,1.647 2.259,2.815 4.136,2.815c2.453,0 4.449,-1.996 4.449,-4.449c0,-1.876 -1.168,-3.483 -2.814,-4.136l3.445,-3.445h3.362v30.4h-0.528l-3.61,-6.252c-0.275,-0.477 -0.885,-0.64 -1.361,-0.365c-0.476,0.275 -0.639,0.884 -0.364,1.361l3.035,5.256h-13.915l-1.493,-2.585l6.958,-12.05l3.09,5.353c0.276,0.476 0.885,0.64 1.361,0.365c0.476,-0.275 0.64,-0.885 0.365,-1.361l-3.298,-5.711c-0.317,-0.549 -0.884,-0.877 -1.518,-0.877c-0.634,0 -1.202,0.328 -1.519,0.877l-6.589,11.412l-8.454,-14.643c-0.317,-0.549 -0.885,-0.877 -1.519,-0.877c-0.634,0 -1.202,0.328 -1.519,0.877l-2.246,3.891v-10.678c0,-1.281 -1.042,-2.324 -2.324,-2.324h-17.088c-1.282,0 -2.324,1.043 -2.324,2.324v21.782c0,0.915 0.744,1.66 1.66,1.66h12.707l-1.481,2.565h-15.02v-30.4h6.716c0.55,0 0.996,-0.446 0.996,-0.996c0,-0.55 -0.446,-0.996 -0.996,-0.996h-7.048c-0.915,0 -1.66,0.745 -1.66,1.66v31.064c0,0.915 0.745,1.66 1.66,1.66h57.658c0.915,0 1.66,-0.745 1.66,-1.66v-31.064c0,-0.915 -0.745,-1.66 -1.66,-1.66h-1.702l1.519,-1.519h2.366c0.549,0 0.996,0.447 0.996,0.996zM27.382,21.5199v15.932h-17.753v-15.932zM9.629,19.5279v-3.525c0,-0.183 0.149,-0.332 0.332,-0.332h17.089c0.183,0 0.332,0.149 0.332,0.332v3.525zM24.305,39.4439h3.409c0.915,0 1.66,-0.744 1.66,-1.66v-2.11c0.249,0.12 0.526,0.185 0.817,0.185c0.68,0 1.289,-0.352 1.629,-0.941l1.695,-2.936c0.051,-0.089 0.129,-0.107 0.186,-0.107c0.057,0 0.135,0.018 0.186,0.107l1.045,1.81c0.34,0.589 0.949,0.941 1.629,0.941c0.68,0 1.289,-0.352 1.629,-0.941l0.26,-0.449l5.003,8.667h-20.629zM29.374,32.3399v-1.675l3.765,-6.521l4.16,7.207l-0.738,1.278l-0.949,-1.643c-0.399,-0.691 -1.113,-1.104 -1.911,-1.104c-0.798,0 -1.513,0.413 -1.912,1.104l-1.598,2.769z" fill="currentColor"/>
</g></svg>