<svg viewBox="0 0 65.875 53.125" fill="none" xmlns="http://www.w3.org/2000/svg" xmlns:xlink="http://www.w3.org/1999/xlink" x="0" y="0"><g id="Group">
<path id="Vector_16" d="M62.1565,0.0005h-58.438c-0.986,0.001 -1.931,0.393 -2.628,1.09c-0.697,0.697 -1.089,1.642 -1.091,2.628v37.188c0.002,0.986 0.394,1.931 1.091,2.628c0.697,0.697 1.642,1.089 2.628,1.09h21.274l-1.275,3.188h-5.655c-0.282,0 -0.552,0.112 -0.751,0.311c-0.2,0.199 -0.312,0.47 -0.312,0.751v2.126h-6.374c-0.282,0 -0.553,0.111 -0.752,0.311c-0.199,0.199 -0.311,0.469 -0.311,0.751c0,0.282 0.112,0.552 0.311,0.751c0.199,0.2 0.47,0.311 0.752,0.311h44.624c0.282,0 0.553,-0.111 0.752,-0.311c0.199,-0.199 0.311,-0.469 0.311,-0.751c0,-0.282 -0.112,-0.552 -0.311,-0.751c-0.199,-0.2 -0.47,-0.311 -0.752,-0.311h-6.374v-2.126c0,-0.281 -0.112,-0.552 -0.312,-0.751c-0.199,-0.199 -0.469,-0.311 -0.751,-0.311h-5.655l-1.275,-3.188h21.274c0.986,-0.001 1.931,-0.393 2.628,-1.09c0.697,-0.697 1.089,-1.642 1.091,-2.628v-37.188c-0.002,-0.986 -0.394,-1.931 -1.091,-2.628c-0.697,-0.697 -1.642,-1.089 -2.628,-1.09zM46.7495,49.9375v1.063h-27.624v-1.063zM26.0075,47.8125l1.275,-3.188h11.31l1.275,3.188zM63.7495,40.9065c0,0.422 -0.168,0.828 -0.467,1.126c-0.298,0.299 -0.704,0.467 -1.126,0.468h-58.438c-0.422,-0.001 -0.828,-0.169 -1.126,-0.468c-0.299,-0.298 -0.467,-0.704 -0.467,-1.126v-2.656h61.624zM63.7495,36.1245h-61.624v-32.406c0,-0.422 0.168,-0.828 0.467,-1.126c0.298,-0.299 0.704,-0.467 1.126,-0.468h58.438c0.422,0.001 0.828,0.169 1.126,0.468c0.299,0.298 0.467,0.704 0.467,1.126z" fill="currentColor"/>
<path id="Vector_17" d="M28.1045,27.4505c0.117,0.077 0.247,0.129 0.384,0.156c0.138,0.026 0.278,0.024 0.415,-0.004c0.137,-0.028 0.266,-0.083 0.382,-0.162c0.115,-0.078 0.214,-0.179 0.29,-0.295l8.368,-12.75c0.154,-0.236 0.209,-0.523 0.152,-0.799c-0.058,-0.276 -0.222,-0.518 -0.458,-0.673c-0.235,-0.154 -0.523,-0.209 -0.798,-0.152c-0.276,0.057 -0.518,0.222 -0.673,0.457l-8.367,12.75c-0.077,0.117 -0.13,0.248 -0.156,0.385c-0.026,0.137 -0.025,0.278 0.004,0.414c0.028,0.137 0.083,0.267 0.161,0.382c0.079,0.116 0.179,0.214 0.296,0.291z" fill="currentColor"/>
<path id="Vector_18" d="M39.6945,27.3785c0.217,0.181 0.496,0.268 0.777,0.242c0.28,-0.025 0.539,-0.161 0.72,-0.378l5.312,-6.375c0.159,-0.191 0.246,-0.431 0.246,-0.68c0,-0.248 -0.087,-0.489 -0.246,-0.68l-5.312,-6.375c-0.089,-0.108 -0.199,-0.197 -0.323,-0.263c-0.123,-0.066 -0.259,-0.106 -0.398,-0.119c-0.14,-0.013 -0.28,0.001 -0.414,0.043c-0.134,0.041 -0.258,0.109 -0.366,0.198c-0.107,0.09 -0.196,0.2 -0.261,0.324c-0.065,0.124 -0.105,0.26 -0.117,0.399c-0.012,0.14 0.003,0.28 0.046,0.414c0.042,0.133 0.11,0.257 0.2,0.364l4.746,5.695l-4.746,5.695c-0.18,0.217 -0.267,0.496 -0.242,0.776c0.026,0.281 0.162,0.54 0.378,0.72z" fill="currentColor"/>
<path id="Vector_19" d="M24.6835,27.2425c0.089,0.108 0.199,0.198 0.322,0.263c0.124,0.066 0.26,0.107 0.399,0.12c0.139,0.013 0.28,-0.002 0.414,-0.043c0.134,-0.042 0.258,-0.109 0.365,-0.199c0.108,-0.09 0.197,-0.2 0.262,-0.324c0.065,-0.124 0.104,-0.259 0.117,-0.399c0.012,-0.139 -0.003,-0.28 -0.046,-0.413c-0.042,-0.134 -0.11,-0.258 -0.2,-0.365l-4.746,-5.695l4.746,-5.695c0.09,-0.107 0.158,-0.231 0.2,-0.364c0.043,-0.134 0.058,-0.274 0.046,-0.414c-0.013,-0.139 -0.052,-0.275 -0.117,-0.399c-0.065,-0.124 -0.154,-0.234 -0.262,-0.324c-0.107,-0.089 -0.231,-0.157 -0.365,-0.198c-0.134,-0.042 -0.275,-0.056 -0.414,-0.043c-0.139,0.013 -0.275,0.053 -0.399,0.119c-0.123,0.066 -0.233,0.155 -0.322,0.263l-5.312,6.375c-0.159,0.191 -0.246,0.432 -0.246,0.68c0,0.249 0.087,0.489 0.246,0.68z" fill="currentColor"/>
</g></svg>