<svg viewBox="0 0 24 24" fill="none" xmlns="http://www.w3.org/2000/svg" xmlns:xlink="http://www.w3.org/1999/xlink" x="0" y="0"><defs><clipPath id="clip6_2_447">
<rect width="14" height="14" fill="white" transform="translate(5, 5)"/>
</clipPath></defs><g id="Youtube">
<circle id="Ellipse 9_4" cx="12" cy="12" r="12" fill="#FFB400"/>
<g id="Icons-Youtube">
<g id="Icons-Youtube_2">
<g id="Icons-Youtube_3" clip-path="url(#clip6_2_447)">
<path id="Vector_6" d="M17.567,8.791c0.266,1.039 0.266,3.209 0.266,3.209c0,0 0,2.17 -0.266,3.21c-0.149,0.574 -0.582,1.026 -1.131,1.179c-0.997,0.278 -4.436,0.278 -4.436,0.278c0,0 -3.438,0 -4.436,-0.278c-0.552,-0.155 -0.984,-0.607 -1.131,-1.179c-0.266,-1.04 -0.266,-3.21 -0.266,-3.21c0,0 0,-2.17 0.266,-3.209c0.148,-0.575 0.582,-1.027 1.131,-1.18c0.998,-0.278 4.436,-0.278 4.436,-0.278c0,0 3.439,0 4.436,0.278c0.551,0.155 0.984,0.607 1.131,1.18zM10.833,14.042l3.5,-2.042l-3.5,-2.042z" fill="#2B2B2B"/>
</g>
</g>
</g>
</g></svg>